# xmcd
#
# Track frame offsets:
#	150
#	17832
#	106443
#	126407
#	148535
#	167749
#	180984
#	205141
#	224367
#	240311
#	254572
#	273592
#	288711
#	304222
#	321967
#	337537
#	349765
#
# Disc length: 4845 seconds
#
# Revision: 0
# Processed by: cddbd v1.5.2PL0 Copyright (c) Steve Scherf et al.
# Submitted via: dBpowerAMP V4.0
#
DISCID=0512eb11
DTITLE=Various Artist - unknown
DYEAR=2006
DGENRE=Rap
TTITLE0=unknown - OU1
TTITLE1=Saber - OU2
TTITLE2=Saber - OU3
TTITLE3=Saber - OU4
TTITLE4=Saber - OU5
TTITLE5=Saber - OU6
TTITLE6=Saber - OU7
TTITLE7=Saber - OU8
TTITLE8=Saber - OU9
TTITLE9=Saber - OU10
TTITLE10=Saber - OU11
TTITLE11=Saber - OU12
TTITLE12=Saber - OU13
TTITLE13=Saber - OU14
TTITLE14=Saber - OU15
TTITLE15=Saber - OU16
TTITLE16=Saber - OU17
EXTD=
EXTT0=
EXTT1=
EXTT2=
EXTT3=
EXTT4=
EXTT5=
EXTT6=
EXTT7=
EXTT8=
EXTT9=
EXTT10=
EXTT11=
EXTT12=
EXTT13=
EXTT14=
EXTT15=
EXTT16=
PLAYORDER=
